<?xml version="1.0" encoding="utf-8"?>
<svg version="1.1" xmlns:xlink="http://www.w3.org/1999/xlink" width="36px" height="36px" xmlns="http://www.w3.org/2000/svg">
  <defs>
    <radialGradient cx="368" cy="31" r="13" gradientTransform="matrix(-1 0 0 -1 736 62 )" gradientUnits="userSpaceOnUse" id="RadialGradient67">
      <stop id="Stop68" stop-color="#ffffff" offset="0" />
      <stop id="Stop69" stop-color="#000000" offset="1" />
    </radialGradient>
    <filter x="351px" y="14px" width="36px" height="36px" filterUnits="userSpaceOnUse" id="filter70">
      <feOffset dx="1" dy="1" in="SourceAlpha" result="shadowOffsetInner" />
      <feGaussianBlur stdDeviation="2.5" in="shadowOffsetInner" result="shadowGaussian" />
      <feComposite in2="shadowGaussian" operator="atop" in="SourceAlpha" result="shadowComposite" />
      <feColorMatrix type="matrix" values="0 0 0 0 0  0 0 0 0 0  0 0 0 0 0  0 0 0 0.349019607843137 0  " in="shadowComposite" />
    </filter>
    <g id="widget71">
      <path d="M 368 22  C 373.04 22  377 25.96  377 31  C 377 36.04  373.04 40  368 40  C 362.96 40  359 36.04  359 31  C 359 25.96  362.96 22  368 22  Z " fill-rule="nonzero" fill="#cccccc" stroke="none" />
      <path d="M 368 20.5  C 373.88 20.5  378.5 25.12  378.5 31  C 378.5 36.88  373.88 41.5  368 41.5  C 362.12 41.5  357.5 36.88  357.5 31  C 357.5 25.12  362.12 20.5  368 20.5  Z " stroke-width="5" stroke="url(#RadialGradient67)" fill="none" />
    </g>
  </defs>
  <g transform="matrix(1 0 0 1 -351 -14 )">
    <use xlink:href="#widget71" filter="url(#filter70)" />
    <use xlink:href="#widget71" />
  </g>
</svg>