<?xml version="1.0" encoding="utf-8"?>
<svg version="1.1" xmlns:xlink="http://www.w3.org/1999/xlink" width="23px" height="21px" xmlns="http://www.w3.org/2000/svg">
  <defs>
    <radialGradient cx="234.5" cy="137.5" r="6.5" gradientTransform="matrix(-1 0 0 -0.846153846153846 469 253.846153846154 )" gradientUnits="userSpaceOnUse" id="RadialGradient52">
      <stop id="Stop53" stop-color="#ffffff" offset="0" />
      <stop id="Stop54" stop-color="#000000" offset="1" />
    </radialGradient>
    <filter x="224px" y="128px" width="23px" height="21px" filterUnits="userSpaceOnUse" id="filter55">
      <feOffset dx="1" dy="1" in="SourceAlpha" result="shadowOffsetInner" />
      <feGaussianBlur stdDeviation="2.5" in="shadowOffsetInner" result="shadowGaussian" />
      <feComposite in2="shadowGaussian" operator="atop" in="SourceAlpha" result="shadowComposite" />
      <feColorMatrix type="matrix" values="0 0 0 0 0  0 0 0 0 0  0 0 0 0 0  0 0 0 0.349019607843137 0  " in="shadowComposite" />
    </filter>
    <g id="widget56">
      <path d="M 234.5 136  C 235.9 136  237 136.66  237 137.5  C 237 138.34  235.9 139  234.5 139  C 233.1 139  232 138.34  232 137.5  C 232 136.66  233.1 136  234.5 136  Z " fill-rule="nonzero" fill="#cccccc" stroke="none" />
      <path d="M 234.5 134.5  C 236.74 134.5  238.5 135.82  238.5 137.5  C 238.5 139.18  236.74 140.5  234.5 140.5  C 232.26 140.5  230.5 139.18  230.5 137.5  C 230.5 135.82  232.26 134.5  234.5 134.5  Z " stroke-width="5" stroke="url(#RadialGradient52)" fill="none" />
    </g>
  </defs>
  <g transform="matrix(1 0 0 1 -224 -128 )">
    <use xlink:href="#widget56" filter="url(#filter55)" />
    <use xlink:href="#widget56" />
  </g>
</svg>