<?xml version="1.0" encoding="utf-8"?>
<svg version="1.1" xmlns:xlink="http://www.w3.org/1999/xlink" width="200px" height="10px" preserveAspectRatio="xMinYMid meet" viewBox="1335 376  200 8" xmlns="http://www.w3.org/2000/svg">
  <path d="M 1318 369  L 1335 369  A 5 5 0 0 1 1340 374 L 1340 375  A 5 5 0 0 0 1345 380 L 1525 380  A 5 5 0 0 0 1530 375 L 1530 374  A 5 5 0 0 1 1535 369 L 1542 369  " stroke-width="2" stroke="#0000ff" fill="none" />
  <path d="M 1536.89289321881 364.707106781187  L 1541.18578643763 369  L 1536.89289321881 373.292893218813  L 1538.30710678119 374.707106781187  L 1543.30710678119 369.707106781187  L 1544.01421356237 369  L 1543.30710678119 368.292893218813  L 1538.30710678119 363.292893218813  L 1536.89289321881 364.707106781187  Z " fill-rule="nonzero" fill="#0000ff" stroke="none" />
</svg>